HIERARCHY
ROOT pelvis
{
  OFFSET 0 100 0
  CHANNELS 6 Xposition Yposition Zposition Zrotation Xrotation Yrotation
  JOINT pelvis_right_femur
  {
    OFFSET -10.78128 -3.44521 -0.5502486
    CHANNELS 3 Zrotation Xrotation Yrotation
    JOINT right_femur_tibia
    {
      OFFSET -0.8047443 -44.0398 -0.1307829
      CHANNELS 3 Zrotation Xrotation Yrotation
      JOINT right_tibia_foot
      {
        OFFSET 3.006224 -47.83518 -5
        CHANNELS 3 Zrotation Xrotation Yrotation
        End Site
        {
          OFFSET 0 -5 15
        }
      }
    }
  }
  JOINT pelvis_left_femur
  {
    OFFSET 10.78128 -3.44521 -0.5502486
    CHANNELS 3 Zrotation Xrotation Yrotation
    JOINT left_femur_tibia
    {
      OFFSET 0.8047443 -44.0398 -0.1307829
      CHANNELS 3 Zrotation Xrotation Yrotation
      JOINT left_tibia_foot
      {
        OFFSET -4.370144 -48.10324 -4.275266
        CHANNELS 3 Zrotation Xrotation Yrotation
        End Site
        {
          OFFSET 0 -5 15
        }
      }
    }
  }
  JOINT pelvis_spine1
  {
    OFFSET 0 6.468898 -3.129235
    CHANNELS 3 Zrotation Xrotation Yrotation
    JOINT spine1
    {
      OFFSET 0 23.15396 4.99043
      CHANNELS 3 Zrotation Xrotation Yrotation
      JOINT spine2
      {
        OFFSET 0 20.79997 -5.064912
        CHANNELS 3 Zrotation Xrotation Yrotation
        JOINT neck
        {
          OFFSET 0 14.38658 9.616178
          CHANNELS 3 Zrotation Xrotation Yrotation
          End Site
          {
            OFFSET 0 20 0
          }
        }
      }
      JOINT right_manubrium
      {
        OFFSET -5.722621 16.35077 3.967754
        CHANNELS 3 Zrotation Xrotation Yrotation
        JOINT right_clavicle
        {
          OFFSET -13.16364 1.694482 -4.693211
          CHANNELS 3 Zrotation Xrotation Yrotation
          JOINT right_humerus
          {
            OFFSET -28.5034 -0.3100689 -2.792744
            CHANNELS 3 Zrotation Xrotation Yrotation
            JOINT right_radius
            {
              OFFSET -25.15693 0.02248979 -1.271978
              CHANNELS 3 Zrotation Xrotation Yrotation
              End Site
              {
                OFFSET -15 0 0
              }
            }
          }
        }
      }
      JOINT left_manubrium
      {
        OFFSET 5.722621 16.35077 3.967754
        CHANNELS 3 Zrotation Xrotation Yrotation
        JOINT left_clavicle
        {
          OFFSET 13.16364 1.694482 -4.693211
          CHANNELS 3 Zrotation Xrotation Yrotation
          JOINT left_humerus
          {
            OFFSET 29.39168 -1.063119 -2.237045
            CHANNELS 3 Zrotation Xrotation Yrotation
            JOINT left_radius
            {
              OFFSET 24.59957 -0.9528479 0.9047498
              CHANNELS 3 Zrotation Xrotation Yrotation
              End Site
              {
                OFFSET 15 -0 -0
              }
            }
          }
        }
      }
    }
  }
}
MOTION
Frames: 15
Frame Time: 0.0416666666667
-230.9161 103.124 -316.0734 5.833375 -7.246695 47.74322 6.818571 13.99248 0.4232618 -0 13.68023 -0 -9.651822 -11.39044 -2.052211 4.331515 -17.46617 -3.599638 -0 16.78391 -0 2.445869 -0.597468 16.14427 1.584263 -4.239363 7.356717 0.5472984 16.66101 -6.1508 1.589061 20.09604 1.902856 0.2461616 -19.03585 4.628832 -2.018819 -30.98459 12.99625 88.99589 14.41632 -10.3655 -0 0 26.90943 -25.05573 17.40593 15.4187 2.222763 -22.93792 -8.081045 -95.95408 12.54933 35.62454 0 0 -6.366022 5.88581 16.00673 4.642807
-226.1213 103.1247 -312.8636 5.752487 -7.310943 47.10479 6.818571 13.99248 0.4232618 -0 13.68023 -0 -9.651822 -11.39044 -2.052211 4.331515 -17.46617 -3.599638 -0 16.78391 -0 2.445869 -0.597468 16.14427 1.584263 -4.239363 7.356717 0.5472984 16.66101 -6.1508 1.589061 20.09604 1.902856 0.2461616 -19.03585 4.628832 -2.018819 -30.98459 12.99625 88.99589 14.41632 -10.3655 -0 0 26.90943 -25.05573 17.40593 15.4187 2.222763 -22.93792 -8.081045 -95.95408 12.54933 35.62454 0 0 -6.366022 5.88581 16.00673 4.642807
-221.3624 103.1255 -309.6007 5.670871 -7.374293 46.46618 6.818571 13.99248 0.4232618 -0 13.68023 -0 -9.651822 -11.39044 -2.052211 4.331515 -17.46617 -3.599638 -0 16.78391 -0 2.445869 -0.597468 16.14427 1.584263 -4.239363 7.356717 0.5472984 16.66101 -6.1508 1.589061 20.09604 1.902856 0.2461616 -19.03585 4.628832 -2.018819 -30.98459 12.99625 88.99589 14.41632 -10.3655 -0 0 26.90943 -25.05573 17.40593 15.4187 2.222763 -22.93792 -8.081045 -95.95408 12.54933 35.62454 0 0 -6.366022 5.88581 16.00673 4.642807
-216.6402 103.1263 -306.2851 5.588536 -7.436736 45.82739 6.818571 13.99248 0.4232618 -0 13.68023 -0 -9.651822 -11.39044 -2.052211 4.331515 -17.46617 -3.599638 -0 16.78391 -0 2.445869 -0.597468 16.14427 1.584263 -4.239363 7.356717 0.5472984 16.66101 -6.1508 1.589061 20.09604 1.902856 0.2461616 -19.03585 4.628832 -2.018819 -30.98459 12.99625 88.99589 14.41632 -10.3655 -0 0 26.90943 -25.05573 17.40593 15.4187 2.222763 -22.93792 -8.081045 -95.95408 12.54933 35.62454 0 0 -6.366022 5.88581 16.00673 4.642807
-211.955 103.1271 -302.9173 5.505492 -7.498266 45.18842 6.818571 13.99248 0.4232618 -0 13.68023 -0 -9.651822 -11.39044 -2.052211 4.331515 -17.46617 -3.599638 -0 16.78391 -0 2.445869 -0.597468 16.14427 1.584263 -4.239363 7.356717 0.5472984 16.66101 -6.1508 1.589061 20.09604 1.902856 0.2461616 -19.03585 4.628832 -2.018819 -30.98459 12.99625 88.99589 14.41632 -10.3655 -0 0 26.90943 -25.05573 17.40593 15.4187 2.222763 -22.93792 -8.081045 -95.95408 12.54933 35.62454 0 0 -6.366022 5.88581 16.00673 4.642807
-207.3075 103.1278 -299.4977 5.421749 -7.558873 44.54927 6.818571 13.99248 0.4232618 -0 13.68023 -0 -9.651822 -11.39044 -2.052211 4.331515 -17.46617 -3.599638 -0 16.78391 -0 2.445869 -0.597468 16.14427 1.584263 -4.239363 7.356717 0.5472984 16.66101 -6.1508 1.589061 20.09604 1.902856 0.2461616 -19.03585 4.628832 -2.018819 -30.98459 12.99625 88.99589 14.41632 -10.3655 -0 0 26.90943 -25.05573 17.40593 15.4187 2.222763 -22.93792 -8.081045 -95.95408 12.54933 35.62454 0 0 -6.366022 5.88581 16.00673 4.642807
-202.6984 103.1286 -296.0266 5.337318 -7.61855 43.90995 6.818571 13.99248 0.4232618 -0 13.68023 -0 -9.651822 -11.39044 -2.052211 4.331515 -17.46617 -3.599638 -0 16.78391 -0 2.445869 -0.597468 16.14427 1.584263 -4.239363 7.356717 0.5472984 16.66101 -6.1508 1.589061 20.09604 1.902856 0.2461616 -19.03585 4.628832 -2.018819 -30.98459 12.99625 88.99589 14.41632 -10.3655 -0 0 26.90943 -25.05573 17.40593 15.4187 2.222763 -22.93792 -8.081045 -95.95408 12.54933 35.62454 0 0 -6.366022 5.88581 16.00673 4.642807
-198.128 103.1294 -292.5045 5.252209 -7.67729 43.27044 6.818571 13.99248 0.4232618 -0 13.68023 -0 -9.651822 -11.39044 -2.052211 4.331515 -17.46617 -3.599638 -0 16.78391 -0 2.445869 -0.597468 16.14427 1.584263 -4.239363 7.356717 0.5472984 16.66101 -6.1508 1.589061 20.09604 1.902856 0.2461616 -19.03585 4.628832 -2.018819 -30.98459 12.99625 88.99589 14.41632 -10.3655 -0 0 26.90943 -25.05573 17.40593 15.4187 2.222763 -22.93792 -8.081045 -95.95408 12.54933 35.62454 0 0 -6.366022 5.88581 16.00673 4.642807
-193.5971 103.1302 -288.9319 5.166431 -7.735084 42.63076 6.818571 13.99248 0.4232618 -0 13.68023 -0 -9.651822 -11.39044 -2.052211 4.331515 -17.46617 -3.599638 -0 16.78391 -0 2.445869 -0.597468 16.14427 1.584263 -4.239363 7.356717 0.5472984 16.66101 -6.1508 1.589061 20.09604 1.902856 0.2461616 -19.03585 4.628832 -2.018819 -30.98459 12.99625 88.99589 14.41632 -10.3655 -0 0 26.90943 -25.05573 17.40593 15.4187 2.222763 -22.93792 -8.081045 -95.95408 12.54933 35.62454 0 0 -6.366022 5.88581 16.00673 4.642807
-189.1061 103.131 -285.3092 5.079996 -7.791925 41.99091 6.818571 13.99248 0.4232618 -0 13.68023 -0 -9.651822 -11.39044 -2.052211 4.331515 -17.46617 -3.599638 -0 16.78391 -0 2.445869 -0.597468 16.14427 1.584263 -4.239363 7.356717 0.5472984 16.66101 -6.1508 1.589061 20.09604 1.902856 0.2461616 -19.03585 4.628832 -2.018819 -30.98459 12.99625 88.99589 14.41632 -10.3655 -0 0 26.90943 -25.05573 17.40593 15.4187 2.222763 -22.93792 -8.081045 -95.95408 12.54933 35.62454 0 0 -6.366022 5.88581 16.00673 4.642807
-184.6557 103.1317 -281.6368 4.992914 -7.847807 41.35088 6.818571 13.99248 0.4232618 -0 13.68023 -0 -9.651822 -11.39044 -2.052211 4.331515 -17.46617 -3.599638 -0 16.78391 -0 2.445869 -0.597468 16.14427 1.584263 -4.239363 7.356717 0.5472984 16.66101 -6.1508 1.589061 20.09604 1.902856 0.2461616 -19.03585 4.628832 -2.018819 -30.98459 12.99625 88.99589 14.41632 -10.3655 -0 0 26.90943 -25.05573 17.40593 15.4187 2.222763 -22.93792 -8.081045 -95.95408 12.54933 35.62454 0 0 -6.366022 5.88581 16.00673 4.642807
-180.2463 103.1325 -277.9152 4.905195 -7.902721 40.71069 6.818571 13.99248 0.4232618 -0 13.68023 -0 -9.651822 -11.39044 -2.052211 4.331515 -17.46617 -3.599638 -0 16.78391 -0 2.445869 -0.597468 16.14427 1.584263 -4.239363 7.356717 0.5472984 16.66101 -6.1508 1.589061 20.09604 1.902856 0.2461616 -19.03585 4.628832 -2.018819 -30.98459 12.99625 88.99589 14.41632 -10.3655 -0 0 26.90943 -25.05573 17.40593 15.4187 2.222763 -22.93792 -8.081045 -95.95408 12.54933 35.62454 0 0 -6.366022 5.88581 16.00673 4.642807
-175.8786 103.1333 -274.1448 4.816851 -7.956661 40.07032 6.818571 13.99248 0.4232618 -0 13.68023 -0 -9.651822 -11.39044 -2.052211 4.331515 -17.46617 -3.599638 -0 16.78391 -0 2.445869 -0.597468 16.14427 1.584263 -4.239363 7.356717 0.5472984 16.66101 -6.1508 1.589061 20.09604 1.902856 0.2461616 -19.03585 4.628832 -2.018819 -30.98459 12.99625 88.99589 14.41632 -10.3655 -0 0 26.90943 -25.05573 17.40593 15.4187 2.222763 -22.93792 -8.081045 -95.95408 12.54933 35.62454 0 0 -6.366022 5.88581 16.00673 4.642807
-171.553 103.1341 -270.3261 4.727892 -8.009619 39.42979 6.818571 13.99248 0.4232618 -0 13.68023 -0 -9.651822 -11.39044 -2.052211 4.331515 -17.46617 -3.599638 -0 16.78391 -0 2.445869 -0.597468 16.14427 1.584263 -4.239363 7.356717 0.5472984 16.66101 -6.1508 1.589061 20.09604 1.902856 0.2461616 -19.03585 4.628832 -2.018819 -30.98459 12.99625 88.99589 14.41632 -10.3655 -0 0 26.90943 -25.05573 17.40593 15.4187 2.222763 -22.93792 -8.081045 -95.95408 12.54933 35.62454 0 0 -6.366022 5.88581 16.00673 4.642807
-167.2701 103.1348 -266.4597 4.638329 -8.061589 38.78909 6.818571 13.99248 0.4232618 -0 13.68023 -0 -9.651822 -11.39044 -2.052211 4.331515 -17.46617 -3.599638 -0 16.78391 -0 2.445869 -0.597468 16.14427 1.584263 -4.239363 7.356717 0.5472984 16.66101 -6.1508 1.589061 20.09604 1.902856 0.2461616 -19.03585 4.628832 -2.018819 -30.98459 12.99625 88.99589 14.41632 -10.3655 -0 0 26.90943 -25.05573 17.40593 15.4187 2.222763 -22.93792 -8.081045 -95.95408 12.54933 35.62454 0 0 -6.366022 5.88581 16.00673 4.642807
